<svg width="32" height="37" viewBox="0 0 32 37" fill="none" xmlns="http://www.w3.org/2000/svg">
<path d="M4.4687 10.2575C4.5062 9.83216 4.36245 9.40687 4.08745 9.11853L1.2687 5.19716V4.61328H10.0312L16.8062 21.7477L22.7624 4.61328H31.1187V5.19716L28.7062 7.86427C28.4999 8.04448 28.3937 8.34723 28.4374 8.64278V28.2496C28.3937 28.5452 28.4999 28.8479 28.7062 29.0281L31.0624 31.6952V32.2791H19.2062V31.6952L21.6499 28.9633C21.8874 28.6893 21.8874 28.6028 21.8874 28.1848V12.3407L15.0937 32.2287H14.1749L6.27495 12.3407V25.669C6.2062 26.2313 6.3687 26.7935 6.71245 27.1972L9.88745 31.6376V32.2215H0.887451V31.6448L4.06245 27.1972C4.39995 26.7935 4.5562 26.2241 4.4687 25.669V10.2575Z" fill="white"/>
</svg>
